<?xml version="1.0" encoding="utf-8"?>
<!-- Uploaded to: SVG Repo, www.svgrepo.com, Generator: SVG Repo Mixer Tools -->
<svg width="800px" height="800px" viewBox="0 0 1024 1024" fill="#000000" class="icon"  version="1.1" xmlns="http://www.w3.org/2000/svg"><path d="M887.842 967.804H328.076c-4.42 0-7.996-3.576-7.996-7.996s3.576-7.996 7.996-7.996h559.766c4.42 0 7.996 3.576 7.996 7.996s-3.576 7.996-7.996 7.996zM759.894 935.818a7.968 7.968 0 0 1-4.794-1.592 8.016 8.016 0 0 1-1.608-11.2c137.878-183.828 96.1-525.716 94.522-537.398a12.844 12.844 0 0 1-0.124-0.828c-0.328-3.544 1.718-6.982 5.044-8.278a8.008 8.008 0 0 1 9.278 2.608c0.11 0.124 0.376 1.578 0.75 4.232l0.86-0.078a8.142 8.142 0 0 1-0.406 3.388c6.84 52.76 35.328 369.362-97.116 545.944a8.026 8.026 0 0 1-6.406 3.202z" fill="" /><path d="M855.856 392.046H607.958c-4.42 0-7.998-3.576-7.998-7.996s3.578-7.996 7.998-7.996h247.896c4.418 0 7.996 3.576 7.996 7.996s-3.576 7.996-7.994 7.996zM456.024 935.818a8.02 8.02 0 0 1-6.404-3.202c-132.444-176.582-103.958-493.184-97.116-545.944a8.146 8.146 0 0 1-0.406-3.388l0.86 0.078c0.376-2.654 0.64-4.108 0.75-4.232 2.17-2.858 5.98-3.874 9.278-2.608 3.326 1.294 5.374 4.732 5.044 8.278a14.41 14.41 0 0 1-0.124 0.828c-1.578 11.682-43.358 353.57 94.522 537.398a8.016 8.016 0 0 1-1.608 11.2 7.986 7.986 0 0 1-4.796 1.592z" fill="" /><path d="M607.958 392.046H360.062c-4.42 0-7.996-3.576-7.996-7.996s3.576-7.996 7.996-7.996h247.896c4.42 0 7.996 3.576 7.996 7.996s-3.576 7.996-7.996 7.996zM767.89 999.792H448.026a7.998 7.998 0 0 1-4.436-1.342l-47.978-31.988a7.996 7.996 0 0 1-2.218-11.088 8.036 8.036 0 0 1 11.09-2.216l45.964 30.642h315.024l45.964-30.642c3.638-2.438 8.606-1.468 11.09 2.216a8 8 0 0 1-2.218 11.088l-47.978 31.988a8.026 8.026 0 0 1-4.44 1.342zM264.104 951.812H8.21a7.992 7.992 0 0 1-7.996-7.996v-47.98a7.99 7.99 0 0 1 7.996-7.996h255.892a7.99 7.99 0 0 1 7.996 7.996v47.98a7.99 7.99 0 0 1-7.994 7.996zM16.208 935.818h239.9v-31.986H16.208v31.986z" fill="" /><path d="M296.09 999.792H40.198a7.99 7.99 0 0 1-7.996-7.996v-47.978a7.992 7.992 0 0 1 7.996-7.998h255.892a7.992 7.992 0 0 1 7.996 7.998v47.978a7.992 7.992 0 0 1-7.996 7.996z m-247.896-15.994h239.9v-31.986H48.194v31.986zM136.156 919.824a7.99 7.99 0 0 1-7.996-7.996v-15.992a7.99 7.99 0 0 1 7.996-7.996 7.992 7.992 0 0 1 7.998 7.996v15.992a7.992 7.992 0 0 1-7.998 7.996zM72.184 919.824a7.99 7.99 0 0 1-7.996-7.996v-15.992c0-4.42 3.576-7.996 7.996-7.996s7.998 3.576 7.998 7.996v15.992a7.992 7.992 0 0 1-7.998 7.996zM200.13 919.824a7.992 7.992 0 0 1-7.998-7.996v-15.992c0-4.42 3.578-7.996 7.998-7.996s7.996 3.576 7.996 7.996v15.992a7.99 7.99 0 0 1-7.996 7.996z" fill="" /><path d="M168.144 967.804a7.992 7.992 0 0 1-7.998-7.996v-15.992c0-4.422 3.578-7.998 7.998-7.998s7.996 3.576 7.996 7.998v15.992a7.99 7.99 0 0 1-7.996 7.996zM232.118 967.804a7.99 7.99 0 0 1-7.996-7.996v-15.992c0-4.422 3.576-7.998 7.996-7.998s7.996 3.576 7.996 7.998v15.992a7.99 7.99 0 0 1-7.996 7.996zM104.17 967.804a7.99 7.99 0 0 1-7.996-7.996v-15.992c0-4.422 3.576-7.998 7.996-7.998s7.998 3.576 7.998 7.998v15.992a7.992 7.992 0 0 1-7.998 7.996zM312.084 903.832H56.192a7.992 7.992 0 0 1-7.998-7.996v-47.98a7.992 7.992 0 0 1 7.998-7.996h255.892a7.99 7.99 0 0 1 7.996 7.996v47.98a7.99 7.99 0 0 1-7.996 7.996zM64.188 887.84h239.898v-31.988H64.188v31.988z" fill="" /><path d="M184.136 871.846a7.992 7.992 0 0 1-7.996-7.998v-15.992c0-4.42 3.576-7.996 7.996-7.996s7.996 3.576 7.996 7.996v15.992a7.992 7.992 0 0 1-7.996 7.998zM120.164 871.846a7.992 7.992 0 0 1-7.996-7.998v-15.992c0-4.42 3.576-7.996 7.996-7.996s7.996 3.576 7.996 7.996v15.992a7.992 7.992 0 0 1-7.996 7.998zM248.11 871.846a7.992 7.992 0 0 1-7.996-7.998v-15.992c0-4.42 3.576-7.996 7.996-7.996s7.998 3.576 7.998 7.996v15.992a7.994 7.994 0 0 1-7.998 7.998z" fill="" /><path d="M855.856 791.878a7.964 7.964 0 0 1-5.374-2.078 7.984 7.984 0 0 1-0.546-11.292c1.576-1.75 157.856-174.552 157.856-250.52 0-26.472-7.638-45.2-22.678-55.632-33.47-23.208-93.868-1.062-94.46-0.86-4.092 1.546-8.746-0.546-10.292-4.686a8 8 0 0 1 4.67-10.292c2.812-1.03 68.768-25.3 109.158 2.672 19.648 13.604 29.598 36.75 29.598 68.798 0 82.106-155.404 253.986-162.012 261.266a7.94 7.94 0 0 1-5.92 2.624z" fill="" /><path d="M871.848 727.906a7.956 7.956 0 0 1-5.264-1.984 7.972 7.972 0 0 1-0.748-11.276c1.092-1.266 109.968-126.416 109.968-186.656 0-11.512-3.468-19.618-10.622-24.772-19.086-13.776-60.49-4.404-74.812 0.376a8.028 8.028 0 0 1-10.122-5.076 7.998 7.998 0 0 1 5.06-10.106c2.422-0.81 59.6-19.506 89.212 1.812 11.464 8.278 17.274 20.976 17.274 37.766 0 66.22-109.282 191.874-113.936 197.182a7.94 7.94 0 0 1-6.01 2.734z" fill="" /><path d="M870.176 205.016c-6.606 0-13.836-1.31-20.928-3.794-9.214-3.232-17.352-8.168-22.896-13.9-6.918-7.152-9.372-14.962-6.886-21.99 2.936-8.372 11.948-13.182 24.722-13.182 6.608 0 13.854 1.312 20.946 3.794 21.506 7.558 34.312 22.99 29.784 35.89-2.938 8.372-11.95 13.182-24.742 13.182zM844.188 168.14c-6.668 0-9.45 1.938-9.636 2.484-0.14 0.422 0.39 2.576 3.296 5.56 3.792 3.92 9.87 7.542 16.696 9.948 5.404 1.89 10.808 2.89 15.632 2.89 6.67 0 9.464-1.938 9.652-2.484 0.656-1.874-5.386-10.37-20.006-15.508-5.388-1.89-10.808-2.89-15.634-2.89z" fill="" /><path d="M830.178 360.06a8.002 8.002 0 0 1-7.542-10.654l57.194-162.87a8 8 0 0 1 10.2-4.904 8.004 8.004 0 0 1 4.888 10.2l-57.194 162.87a8.008 8.008 0 0 1-7.546 5.358zM762.378 360.06a8.006 8.006 0 0 1-7.544-10.654l64.63-184.078a7.934 7.934 0 0 1 10.198-4.888 7.988 7.988 0 0 1 4.888 10.184l-64.628 184.078a8 8 0 0 1-7.544 5.358z" fill="" /><path d="M854.464 250.31c-6.67 0-14.01-1.328-21.118-3.826a7.99 7.99 0 0 1-4.886-10.2 7.982 7.982 0 0 1 10.198-4.888c6.514 2.294 13.37 3.342 18.742 2.78 4.452-0.438 6.326-1.78 6.53-2.374a7.978 7.978 0 0 1 10.2-4.888 7.988 7.988 0 0 1 4.886 10.2c-1.498 4.264-6.106 11.634-20.068 12.978-1.454 0.14-2.952 0.218-4.484 0.218z" fill="" /><path d="M836.004 246.936c-0.876 0-1.782-0.14-2.656-0.452-18.726-6.576-34.984-21.024-29.784-35.876a7.964 7.964 0 0 1 10.182-4.904 7.978 7.978 0 0 1 4.906 10.184c-0.782 2.25 6.152 10.636 20.006 15.51a7.99 7.99 0 0 1 4.888 10.2 7.99 7.99 0 0 1-7.542 5.338zM838.658 295.604c-6.808 0-14.212-1.39-21.208-3.842a7.992 7.992 0 0 1-4.888-10.2c1.466-4.154 6.014-6.388 10.2-4.888 13.822 4.858 24.49 2.624 25.27 0.39 1.468-4.154 6.03-6.388 10.2-4.888a7.992 7.992 0 0 1 4.888 10.2c-3.282 9.308-13.028 13.228-24.462 13.228z" fill="" /><path d="M820.104 292.214c-0.874 0-1.78-0.14-2.654-0.454-18.742-6.592-34.986-21.04-29.77-35.892 1.468-4.154 6.03-6.372 10.2-4.886a7.984 7.984 0 0 1 4.888 10.198c-0.782 2.234 6.138 10.622 19.992 15.494a7.988 7.988 0 0 1 4.888 10.2 8.014 8.014 0 0 1-7.544 5.34z" fill="" /><path d="M822.682 340.85c-6.67 0-14.01-1.328-21.132-3.826a7.986 7.986 0 0 1-4.888-10.2 7.986 7.986 0 0 1 10.2-4.888c6.514 2.296 13.354 3.36 18.758 2.782 4.294-0.422 6.28-1.688 6.53-2.39a7.98 7.98 0 0 1 10.198-4.888 7.992 7.992 0 0 1 4.89 10.2c-1.5 4.28-6.108 11.636-20.07 12.994-1.458 0.138-2.958 0.216-4.486 0.216z" fill="" /><path d="M804.206 337.476c-0.876 0-1.782-0.14-2.656-0.454-18.742-6.592-34.984-21.022-29.768-35.89 1.466-4.154 6.028-6.374 10.2-4.888a7.992 7.992 0 0 1 4.886 10.2c-0.782 2.232 6.138 10.634 19.992 15.492a7.992 7.992 0 0 1 4.888 10.2 7.99 7.99 0 0 1-7.542 5.34z" fill="" /><path d="M455.164 360.076a7.992 7.992 0 0 1-7.186-4.482c-6.714-13.698-11.042-31.19-3.044-39.188a7.994 7.994 0 0 1 11.308 0 8.012 8.012 0 0 1 0.516 10.746c-0.594 2.204-0.016 9.996 5.59 21.398a8.008 8.008 0 0 1-7.184 11.526z" fill="" /><path d="M514.436 359.998a7.988 7.988 0 0 1-5.732-2.42l-1.53-1.546c-25.928-25.926-48.106-29.144-51.728-27.722-3.14 3.108-7.78 2.842-10.918-0.296-3.124-3.124-2.716-8.48 0.406-11.606 5.576-5.59 16.882-5.746 31.002-0.482 10.012 3.732 25.506 11.76 42.498 28.752l1.734 1.75a7.996 7.996 0 0 1-5.732 13.57z" fill="" /><path d="M420.6 360.06a7.994 7.994 0 0 1-5.652-13.65l29.986-30.004a7.994 7.994 0 0 1 11.308 0 7.994 7.994 0 0 1 0 11.308l-29.988 30.004a7.97 7.97 0 0 1-5.654 2.342z" fill="" /><path d="M572.05 348.488c-13.602 0-23.41-3.844-26.692-10.464a8.006 8.006 0 0 1 3.594-10.73 8.014 8.014 0 0 1 10.354 2.952c3.686 2.516 25.522 6.014 57.618-9.932 32.736-16.26 42.904-36.252 42.702-40.172-1.968-3.952-0.204-8.278 3.748-10.246 3.952-1.952 8.902 0.124 10.872 4.078 3.53 7.074 0.092 17.836-9.402 29.534-6.732 8.308-19.274 20.43-40.794 31.128-19.418 9.65-37.784 13.852-52 13.852z" fill="" /><path d="M552.998 342.85c-3.11 0-6.186-1.906-7.638-4.826-3.53-7.076-0.094-17.852 9.402-29.55 6.748-8.308 19.29-20.444 40.812-31.126 30.502-15.166 55.68-15.698 68.034-11.528 5.264 1.766 8.84 4.514 10.65 8.17a7.996 7.996 0 0 1-3.622 10.712 7.986 7.986 0 0 1-10.34-2.952c-3.75-2.532-25.6-6.03-57.602 9.918-32.736 16.258-42.92 36.266-42.716 40.186 1.968 3.952 0.204 8.278-3.748 10.246-1.03 0.5-2.14 0.75-3.232 0.75z" fill="" /><path d="M561.244 360.03a8.012 8.012 0 0 1-7.17-4.436l-8.73-17.57a8.02 8.02 0 0 1 3.61-10.73c3.92-1.966 8.746-0.36 10.728 3.608l8.732 17.572a8.02 8.02 0 0 1-3.61 10.728 8.03 8.03 0 0 1-3.56 0.828zM703.214 360.076a8 8 0 0 1-7.2-4.514l-36.124-74.546a8 8 0 0 1 3.716-10.684c3.998-1.888 8.746-0.266 10.682 3.704l36.126 74.546a8.016 8.016 0 0 1-3.716 10.698 8.17 8.17 0 0 1-3.484 0.796z" fill="" /><path d="M599.96 200.126a7.96 7.96 0 0 1-4.418-1.342 8.028 8.028 0 0 1-2.25-11.09c1.156-1.732 27.926-42.966 1.016-69.876-28.972-28.972-13.322-71.578-1-90.054a7.994 7.994 0 0 1 11.074-2.218 8.01 8.01 0 0 1 2.248 11.074c-1.154 1.748-27.926 42.98-1.014 69.892 28.97 28.956 13.32 71.562 0.998 90.054a7.984 7.984 0 0 1-6.654 3.56z" fill="" /><path d="M679.93 200.126a7.972 7.972 0 0 1-4.422-1.342 8.03 8.03 0 0 1-2.248-11.09c1.154-1.732 27.926-42.966 1.014-69.876a7.992 7.992 0 0 1 0-11.306 7.994 7.994 0 0 1 11.308 0c28.972 28.956 13.322 71.562 1 90.054a7.988 7.988 0 0 1-6.652 3.56z" fill="" /><path d="M519.996 200.126a7.96 7.96 0 0 1-4.42-1.342 8.032 8.032 0 0 1-2.25-11.09c1.156-1.732 27.926-42.966 1.016-69.876a7.992 7.992 0 0 1 0-11.306 7.992 7.992 0 0 1 11.306 0c28.972 28.956 13.324 71.562 1 90.054a7.984 7.984 0 0 1-6.652 3.56z" fill="" /><path d="M743.902 456.02a7.992 7.992 0 0 1-7.998-7.996v-64.05a7.992 7.992 0 0 1 7.998-7.996 7.99 7.99 0 0 1 7.996 7.996v64.05a7.99 7.99 0 0 1-7.996 7.996z" fill="" /><path d="M551.982 471.966a7.99 7.99 0 0 1-7.996-7.996v-79.998c0-4.42 3.576-7.996 7.996-7.996s7.996 3.576 7.996 7.996v79.998a7.99 7.99 0 0 1-7.996 7.996z" fill="" /><path d="M663.936 583.966a7.994 7.994 0 0 1-7.998-7.998v-191.996c0-4.42 3.578-7.996 7.998-7.996s7.996 3.576 7.996 7.996v191.996a7.992 7.992 0 0 1-7.996 7.998z" fill="" /><path d="M440.03 424.034a7.99 7.99 0 0 1-7.996-7.996v-31.986c0-4.42 3.576-7.996 7.996-7.996s7.996 3.576 7.996 7.996v31.986a7.99 7.99 0 0 1-7.996 7.996z" fill="" /></svg>